<?xml version="1.0" encoding="UTF-8" standalone="no"?>
<svg
   xmlns:xhtml="http://www.w3.org/1999/xhtml"
   xmlns:dc="http://purl.org/dc/elements/1.1/"
   xmlns:cc="http://creativecommons.org/ns#"
   xmlns:rdf="http://www.w3.org/1999/02/22-rdf-syntax-ns#"
   xmlns:svg="http://www.w3.org/2000/svg"
   xmlns="http://www.w3.org/2000/svg"
   xmlns:sodipodi="http://sodipodi.sourceforge.net/DTD/sodipodi-0.dtd"
   xmlns:inkscape="http://www.inkscape.org/namespaces/inkscape"
   version="1.1"
   width="526.5999999999999"
   height="120"
   id="svg2"
   inkscape:version="0.91 r13725"
   sodipodi:docname="libraryflow.svg">
  <metadata
     id="metadata382">
    <rdf:RDF>
      <cc:Work
         rdf:about="">
        <dc:format>image/svg+xml</dc:format>
        <dc:type
           rdf:resource="http://purl.org/dc/dcmitype/StillImage" />
      </cc:Work>
    </rdf:RDF>
  </metadata>
  <sodipodi:namedview
     pagecolor="#ffffff"
     bordercolor="#666666"
     borderopacity="1"
     objecttolerance="10"
     gridtolerance="10"
     guidetolerance="10"
     inkscape:pageopacity="0"
     inkscape:pageshadow="2"
     inkscape:window-width="1803"
     inkscape:window-height="1121"
     id="namedview380"
     showgrid="false"
     inkscape:zoom="2"
     inkscape:cx="284.02576"
     inkscape:cy="32.071068"
     inkscape:window-x="0"
     inkscape:window-y="24"
     inkscape:window-maximized="0"
     inkscape:current-layer="svg2" />
  <xhtml:style />
  <path
     d="m 10,10 m 0,0 60,0 q 0,0 0,0 l 0,37 q 0,0 0,0 l -60,0 q 0,0 0,0 l 0,-37 q 0,0 0,0 z"
     stroke-miterlimit="10"
     id="sample1"
     inkscape:connector-curvature="0"
     style="fill:#9FC5E8;fill-opacity:1;stroke:#333333;stroke-width:2;stroke-miterlimit:10" />
  <defs
     id="defs4" />
  <text
     style="font-style:normal;font-weight:normal;font-size:12px;line-height:14px;font-family:Arial;fill:#000000;stroke:none"
     id="text54"
     y="33"
     x="19.953125"
     line-height="14px"
     text-decoration=""
     font-weight="normal"
     font-style="normal"
     font-size="12px">Sample</text>
  <path
     d="m 90,10 m 0,0 60,0 q 0,0 0,0 l 0,37 q 0,0 0,0 l -60,0 q 0,0 0,0 l 0,-37 q 0,0 0,0 z"
     stroke-miterlimit="10"
     id="sample2"
     inkscape:connector-curvature="0"
     style="fill:#9FC5E8;fill-opacity:1;stroke:#333333;stroke-width:2;stroke-miterlimit:10" />
  <text
     style="font-style:normal;font-weight:normal;font-size:12px;line-height:14px;font-family:Arial;fill:#000000;stroke:none"
     id="text98"
     y="33"
     x="99.953125"
     line-height="14px"
     text-decoration=""
     font-weight="normal"
     font-style="normal"
     font-size="12px">Sample</text>
  <path
     d="m 150,70 m 0,0 50,0 q 0,0 0,0 l 0,30 q 0,0 0,0 l -50,0 q 0,0 0,0 l 0,-30 q 0,0 0,0 z"
     stroke-miterlimit="10"
     id="kit"
     inkscape:connector-curvature="0"
     style="fill:#eeeeee;stroke:#333333;stroke-width:2;stroke-miterlimit:10;fill-opacity:1" />
  <rect
     x="159"
     y="78"
     width="33"
     height="14"
     id="rect128"
     style="fill:#000000;fill-opacity:0;stroke:none" />
  <text
     style="font-style:normal;font-weight:normal;font-size:12px;line-height:14px;font-family:Arial;fill:#000000;stroke:none"
     id="text142"
     y="89"
     x="168.5"
     line-height="14px"
     text-decoration=""
     font-weight="normal"
     font-style="normal"
     font-size="12px">Kit</text>
  <path
     d="m 200,10 m 0,0 60,0 q 0,0 0,0 l 0,37 q 0,0 0,0 l -60,0 q 0,0 0,0 l 0,-37 q 0,0 0,0 z"
     stroke-miterlimit="10"
     id="library"
     inkscape:connector-curvature="0"
     style="fill:#9FC5E8;stroke:#333333;stroke-width:2;stroke-miterlimit:10;fill-opacity:1" />
  <text
     style="font-style:normal;font-weight:normal;font-size:12px;line-height:14px;font-family:Arial;fill:#000000;stroke:none"
     id="text186"
     y="33"
     x="211.95312"
     line-height="14px"
     text-decoration=""
     font-weight="normal"
     font-style="normal"
     font-size="12px">Library</text>
  <path
     d="m 280,10 m 0,0 60,0 q 0,0 0,0 l 0,37 q 0,0 0,0 l -60,0 q 0,0 0,0 l 0,-37 q 0,0 0,0 z"
     stroke-miterlimit="10"
     id="dilution"
     inkscape:connector-curvature="0"
     style="fill:#9FC5E8;stroke:#333333;stroke-width:2;stroke-miterlimit:10;fill-opacity:1" />
  <text
     style="font-style:normal;font-weight:normal;font-size:12px;line-height:14px;font-family:Arial;fill:#000000;stroke:none"
     id="text230"
     y="33"
     x="290.28125"
     line-height="14px"
     text-decoration=""
     font-weight="normal"
     font-style="normal"
     font-size="12px">Dilution</text>
  <path
     d="m 360,10 m 0,0 50,0 q 0,0 0,0 l 0,37 q 0,0 0,0 l -50,0 q 0,0 0,0 l 0,-37 q 0,0 0,0 z"
     stroke-miterlimit="10"
     id="pool"
     inkscape:connector-curvature="0"
     style="fill:#eeeeee;stroke:#333333;stroke-width:2;stroke-miterlimit:10;fill-opacity:1" />
  <rect
     x="369"
     y="22"
     width="33"
     height="14"
     id="rect260"
     style="fill:#000000;fill-opacity:0;stroke:none" />
  <text
     style="font-style:normal;font-weight:normal;font-size:12px;line-height:14px;font-family:Arial;fill:#000000;stroke:none"
     id="text274"
     y="33"
     x="373.48438"
     line-height="14px"
     text-decoration=""
     font-weight="normal"
     font-style="normal"
     font-size="12px">Pool</text>
  <path
     d="m 430,10 m 0,0 70,0 q 0,0 0,0 l 0,37 q 0,0 0,0 l -70,0 q 0,0 0,0 l 0,-37 q 0,0 0,0 z"
     stroke-miterlimit="10"
     id="flowcell"
     inkscape:connector-curvature="0"
     style="fill:#eeeeee;stroke:#333333;stroke-width:2;stroke-miterlimit:10;fill-opacity:1" />
  <text
     style="font-style:normal;font-weight:normal;font-size:12px;line-height:14px;font-family:Arial;fill:#000000;stroke:none"
     id="text318"
     y="33"
     x="443.42188"
     line-height="14px"
     text-decoration=""
     font-weight="normal"
     font-style="normal"
     font-size="12px">Flowcell</text>
  <path
     style="fill:none;stroke:#333333;stroke-width:2;stroke-miterlimit:10"
     inkscape:connector-curvature="0"
     id="path328"
     stroke-miterlimit="10"
     d="m 410,28.5 6.66667,0 6.66666,0 6.66667,0" />
  <path
     style="fill:none;stroke:#333333;stroke-width:2;stroke-miterlimit:10"
     inkscape:connector-curvature="0"
     id="path338"
     stroke-miterlimit="10"
     d="m 340,28.5 6.66667,0 6.66666,0 6.66667,0" />
  <path
     style="fill:none;stroke:#333333;stroke-width:2;stroke-miterlimit:10"
     inkscape:connector-curvature="0"
     id="path348"
     stroke-miterlimit="10"
     d="m 280,28.5 -6.66667,0 -6.66666,0 -6.66667,0" />
  <path
     style="fill:none;stroke:#333333;stroke-width:2;stroke-miterlimit:10"
     inkscape:connector-curvature="0"
     id="path358"
     stroke-miterlimit="10"
     d="m 175,70 q 0,-41.5 25,-41.5" />
  <path
     style="fill:none;stroke:#333333;stroke-width:2;stroke-miterlimit:10"
     inkscape:connector-curvature="0"
     id="path368"
     stroke-miterlimit="10"
     d="m 150,28.5 16.66667,0 16.66666,0 16.66667,0" />
  <path
     style="fill:none;stroke:#333333;stroke-width:2;stroke-miterlimit:10"
     inkscape:connector-curvature="0"
     id="path378"
     stroke-miterlimit="10"
     d="m 70,28.5 6.666667,0 6.666666,0 L 90,28.5" />
</svg>
