<?xml version="1.0" encoding="UTF-8" standalone="no"?>
<svg
   xmlns:xhtml="http://www.w3.org/1999/xhtml"
   xmlns:dc="http://purl.org/dc/elements/1.1/"
   xmlns:cc="http://creativecommons.org/ns#"
   xmlns:rdf="http://www.w3.org/1999/02/22-rdf-syntax-ns#"
   xmlns:svg="http://www.w3.org/2000/svg"
   xmlns="http://www.w3.org/2000/svg"
   xmlns:sodipodi="http://sodipodi.sourceforge.net/DTD/sodipodi-0.dtd"
   xmlns:inkscape="http://www.inkscape.org/namespaces/inkscape"
   version="1.1"
   width="674"
   height="112"
   id="svg2"
   inkscape:version="0.92.4 (unknown)"
   sodipodi:docname="flow-library.svg">
  <metadata
     id="metadata382">
    <rdf:RDF>
      <cc:Work
         rdf:about="">
        <dc:format>image/svg+xml</dc:format>
        <dc:type
           rdf:resource="http://purl.org/dc/dcmitype/StillImage" />
        <dc:title />
      </cc:Work>
    </rdf:RDF>
  </metadata>
  <sodipodi:namedview
     pagecolor="#ffffff"
     bordercolor="#666666"
     borderopacity="1"
     objecttolerance="10"
     gridtolerance="10"
     guidetolerance="10"
     inkscape:pageopacity="0"
     inkscape:pageshadow="2"
     inkscape:window-width="2495"
     inkscape:window-height="1416"
     id="namedview380"
     showgrid="false"
     inkscape:zoom="2"
     inkscape:cx="218.61658"
     inkscape:cy="23.071068"
     inkscape:window-x="65"
     inkscape:window-y="24"
     inkscape:window-maximized="1"
     inkscape:current-layer="svg2"
     fit-margin-top="10"
     fit-margin-right="10"
     fit-margin-bottom="10"
     fit-margin-left="10" />
  <xhtml:style />
  <path
     d="m 173,11 m 0,0 60,0 q 0,0 0,0 l 0,37 q 0,0 0,0 l -60,0 q 0,0 0,0 l 0,-37 q 0,0 0,0 z"
     stroke-miterlimit="10"
     id="sample1"
     inkscape:connector-curvature="0"
     style="fill:#9fc5e8;fill-opacity:1;stroke:#333333;stroke-width:2;stroke-miterlimit:10" />
  <defs
     id="defs4">
    <marker
       inkscape:isstock="true"
       style="overflow:visible;"
       id="marker4610"
       refX="0.0"
       refY="0.0"
       orient="auto"
       inkscape:stockid="Arrow1Mend">
      <path
         transform="scale(0.4) rotate(180) translate(10,0)"
         style="fill-rule:evenodd;stroke:#333333;stroke-width:1pt;stroke-opacity:1;fill:#333333;fill-opacity:1"
         d="M 0.0,0.0 L 5.0,-5.0 L -12.5,0.0 L 5.0,5.0 L 0.0,0.0 z "
         id="path4612" />
    </marker>
    <marker
       inkscape:isstock="true"
       style="overflow:visible;"
       id="marker4564"
       refX="0.0"
       refY="0.0"
       orient="auto"
       inkscape:stockid="Arrow1Mend">
      <path
         transform="scale(0.4) rotate(180) translate(10,0)"
         style="fill-rule:evenodd;stroke:#333333;stroke-width:1pt;stroke-opacity:1;fill:#333333;fill-opacity:1"
         d="M 0.0,0.0 L 5.0,-5.0 L -12.5,0.0 L 5.0,5.0 L 0.0,0.0 z "
         id="path4566" />
    </marker>
    <marker
       inkscape:isstock="true"
       style="overflow:visible;"
       id="marker4524"
       refX="0.0"
       refY="0.0"
       orient="auto"
       inkscape:stockid="Arrow1Mend">
      <path
         transform="scale(0.4) rotate(180) translate(10,0)"
         style="fill-rule:evenodd;stroke:#333333;stroke-width:1pt;stroke-opacity:1;fill:#333333;fill-opacity:1"
         d="M 0.0,0.0 L 5.0,-5.0 L -12.5,0.0 L 5.0,5.0 L 0.0,0.0 z "
         id="path4526" />
    </marker>
    <marker
       inkscape:isstock="true"
       style="overflow:visible;"
       id="marker4490"
       refX="0.0"
       refY="0.0"
       orient="auto"
       inkscape:stockid="Arrow1Mend">
      <path
         transform="scale(0.4) rotate(180) translate(10,0)"
         style="fill-rule:evenodd;stroke:#333333;stroke-width:1pt;stroke-opacity:1;fill:#333333;fill-opacity:1"
         d="M 0.0,0.0 L 5.0,-5.0 L -12.5,0.0 L 5.0,5.0 L 0.0,0.0 z "
         id="path4492" />
    </marker>
    <marker
       inkscape:isstock="true"
       style="overflow:visible;"
       id="marker4462"
       refX="0.0"
       refY="0.0"
       orient="auto"
       inkscape:stockid="Arrow1Mend">
      <path
         transform="scale(0.4) rotate(180) translate(10,0)"
         style="fill-rule:evenodd;stroke:#333333;stroke-width:1pt;stroke-opacity:1;fill:#333333;fill-opacity:1"
         d="M 0.0,0.0 L 5.0,-5.0 L -12.5,0.0 L 5.0,5.0 L 0.0,0.0 z "
         id="path4464" />
    </marker>
    <marker
       inkscape:isstock="true"
       style="overflow:visible;"
       id="marker4440"
       refX="0.0"
       refY="0.0"
       orient="auto"
       inkscape:stockid="Arrow1Mend">
      <path
         transform="scale(0.4) rotate(180) translate(10,0)"
         style="fill-rule:evenodd;stroke:#333333;stroke-width:1pt;stroke-opacity:1;fill:#333333;fill-opacity:1"
         d="M 0.0,0.0 L 5.0,-5.0 L -12.5,0.0 L 5.0,5.0 L 0.0,0.0 z "
         id="path4442" />
    </marker>
    <marker
       inkscape:stockid="Arrow1Mend"
       orient="auto"
       refY="0.0"
       refX="0.0"
       id="Arrow1Mend"
       style="overflow:visible;"
       inkscape:isstock="true"
       inkscape:collect="always">
      <path
         id="path4173"
         d="M 0.0,0.0 L 5.0,-5.0 L -12.5,0.0 L 5.0,5.0 L 0.0,0.0 z "
         style="fill-rule:evenodd;stroke:#333333;stroke-width:1pt;stroke-opacity:1;fill:#333333;fill-opacity:1"
         transform="scale(0.4) rotate(180) translate(10,0)" />
    </marker>
  </defs>
  <text
     style="font-style:normal;font-weight:normal;font-size:12px;line-height:0%;font-family:Arial;fill:#000000;stroke:none"
     id="text54"
     y="34"
     x="187.70703"
     line-height="14px"
     text-decoration=""
     font-weight="normal"
     font-style="normal"
     font-size="12px">Stock</text>
  <path
     d="m 253,11 m 0,0 60,0 q 0,0 0,0 l 0,37 q 0,0 0,0 l -60,0 q 0,0 0,0 l 0,-37 q 0,0 0,0 z"
     stroke-miterlimit="10"
     id="sample2"
     inkscape:connector-curvature="0"
     style="fill:#9fc5e8;fill-opacity:1;stroke:#333333;stroke-width:2;stroke-miterlimit:10" />
  <text
     style="font-style:normal;font-weight:normal;font-size:12px;line-height:0%;font-family:Arial;fill:#000000;stroke:none"
     id="text98"
     y="34"
     x="264.66602"
     line-height="14px"
     text-decoration=""
     font-weight="normal"
     font-style="normal"
     font-size="12px">Aliquot</text>
  <path
     d="m 313,71 m 0,0 50,0 q 0,0 0,0 l 0,30 q 0,0 0,0 l -50,0 q 0,0 0,0 l 0,-30 q 0,0 0,0 z"
     stroke-miterlimit="10"
     id="kit"
     inkscape:connector-curvature="0"
     style="fill:#eeeeee;fill-opacity:1;stroke:#333333;stroke-width:2;stroke-miterlimit:10" />
  <rect
     x="322"
     y="79"
     width="33"
     height="14"
     id="rect128"
     style="fill:#000000;fill-opacity:0;stroke:none" />
  <text
     style="font-style:normal;font-weight:normal;font-size:12px;line-height:0%;font-family:Arial;fill:#000000;stroke:none"
     id="text142"
     y="90"
     x="331.5"
     line-height="14px"
     text-decoration=""
     font-weight="normal"
     font-style="normal"
     font-size="12px">Kit</text>
  <path
     d="m 363,11 m 0,0 60,0 q 0,0 0,0 l 0,37 q 0,0 0,0 l -60,0 q 0,0 0,0 l 0,-37 q 0,0 0,0 z"
     stroke-miterlimit="10"
     id="library"
     inkscape:connector-curvature="0"
     style="fill:#9fc5e8;fill-opacity:1;stroke:#333333;stroke-width:2;stroke-miterlimit:10" />
  <text
     style="font-style:normal;font-weight:normal;font-size:12px;line-height:0%;font-family:Arial;fill:#000000;stroke:none"
     id="text186"
     y="34"
     x="374.95312"
     line-height="14px"
     text-decoration=""
     font-weight="normal"
     font-style="normal"
     font-size="12px">Library</text>
  <path
     d="m 443,11 m 0,0 60,0 q 0,0 0,0 l 0,37 q 0,0 0,0 l -60,0 q 0,0 0,0 l 0,-37 q 0,0 0,0 z"
     stroke-miterlimit="10"
     id="libraryAliquot"
     inkscape:connector-curvature="0"
     style="fill:#eeeeee;fill-opacity:1;stroke:#333333;stroke-width:2;stroke-miterlimit:10" />
  <text
     style="font-style:normal;font-variant:normal;font-weight:normal;font-stretch:normal;font-size:12px;line-height:0%;font-family:Arial;-inkscape-font-specification:'Arial, Normal';font-variant-ligatures:normal;font-variant-caps:normal;font-variant-numeric:normal;font-feature-settings:normal;text-align:center;writing-mode:lr-tb;text-anchor:middle;fill:#000000;stroke:none"
     id="text230"
     y="27"
     x="473.28125"
     line-height="14px"
     text-decoration=""
     font-weight="normal"
     font-style="normal"
     font-size="12px">
    <tspan
       sodipodi:role="line"
       id="tspan901"
       x="473.28125"
       y="27">Library</tspan>
  </text>
  <text
     style="font-style:normal;font-variant:normal;font-weight:normal;font-stretch:normal;font-size:12px;line-height:0%;font-family:Arial;-inkscape-font-specification:'Arial, Normal';font-variant-ligatures:normal;font-variant-caps:normal;font-variant-numeric:normal;font-feature-settings:normal;text-align:center;writing-mode:lr-tb;text-anchor:middle;fill:#000000;stroke:none"
     id="text230-1"
     y="38.602539"
     x="472.51953"
     line-height="14px"
     text-decoration=""
     font-weight="normal"
     font-style="normal"
     font-size="12px">
    <tspan
       sodipodi:role="line"
       id="tspan963"
       x="472.51953"
       y="38.602539">Aliquot</tspan>
  </text>
  <path
     d="m 523,11 m 0,0 50,0 q 0,0 0,0 l 0,37 q 0,0 0,0 l -50,0 q 0,0 0,0 l 0,-37 q 0,0 0,0 z"
     stroke-miterlimit="10"
     id="pool"
     inkscape:connector-curvature="0"
     style="fill:#eeeeee;fill-opacity:1;stroke:#333333;stroke-width:2;stroke-miterlimit:10" />
  <rect
     x="532"
     y="23"
     width="33"
     height="14"
     id="rect260"
     style="fill:#000000;fill-opacity:0;stroke:none" />
  <text
     style="font-style:normal;font-weight:normal;font-size:12px;line-height:0%;font-family:Arial;fill:#000000;stroke:none"
     id="text274"
     y="34"
     x="536.48438"
     line-height="14px"
     text-decoration=""
     font-weight="normal"
     font-style="normal"
     font-size="12px">Pool</text>
  <path
     d="m 593,11 m 0,0 70,0 q 0,0 0,0 l 0,37 q 0,0 0,0 l -70,0 q 0,0 0,0 l 0,-37 q 0,0 0,0 z"
     stroke-miterlimit="10"
     id="flowcell"
     inkscape:connector-curvature="0"
     style="fill:#eeeeee;fill-opacity:1;stroke:#333333;stroke-width:2;stroke-miterlimit:10" />
  <text
     style="font-style:normal;font-weight:normal;font-size:12px;line-height:0%;font-family:Arial;fill:#000000;stroke:none"
     id="text318"
     y="34"
     x="601.76172"
     line-height="14px"
     text-decoration=""
     font-weight="normal"
     font-style="normal"
     font-size="12px">Container</text>
  <path
     style="fill:none;stroke:#333333;stroke-width:2;stroke-miterlimit:10;marker-end:url(#marker4610)"
     inkscape:connector-curvature="0"
     id="path328"
     stroke-miterlimit="10"
     d="m 573,29.5 6.66667,0 6.66666,0 6.66667,0" />
  <path
     style="fill:none;stroke:#333333;stroke-width:2;stroke-miterlimit:10;marker-end:url(#Arrow1Mend)"
     inkscape:connector-curvature="0"
     id="path338"
     stroke-miterlimit="10"
     d="m 503,29.5 6.66667,0 6.66666,0 6.66667,0" />
  <path
     style="fill:none;stroke:#333333;stroke-width:2;stroke-miterlimit:10;marker-end:url(#marker4440)"
     inkscape:connector-curvature="0"
     id="path348"
     stroke-miterlimit="10"
     d="m 423.17997,29.5 6.66667,0 6.66666,0 6.66667,0" />
  <path
     style="fill:none;stroke:#333333;stroke-width:2;stroke-miterlimit:10"
     inkscape:connector-curvature="0"
     id="path358"
     stroke-miterlimit="10"
     d="m 338,71 q 0,-41.5 25,-41.5" />
  <path
     style="fill:none;stroke:#333333;stroke-width:2;stroke-miterlimit:10;marker-end:url(#marker4462)"
     inkscape:connector-curvature="0"
     id="path368"
     stroke-miterlimit="10"
     d="m 313,29.5 16.66667,0 16.66666,0 16.66667,0" />
  <path
     style="fill:none;stroke:#333333;stroke-width:2;stroke-miterlimit:10;marker-end:url(#marker4490)"
     inkscape:connector-curvature="0"
     id="path378"
     stroke-miterlimit="10"
     d="m 233,29.5 6.66667,0 6.66666,0 6.66667,0" />
  <path
     style="fill:#9fc5e8;fill-opacity:1;stroke:#333333;stroke-width:2;stroke-miterlimit:10"
     inkscape:connector-curvature="0"
     id="path6984"
     stroke-miterlimit="10"
     d="m 92,11 m 0,0 60,0 q 0,0 0,0 l 0,37 q 0,0 0,0 l -60,0 q 0,0 0,0 l 0,-37 q 0,0 0,0 z" />
  <text
     font-size="12px"
     font-style="normal"
     font-weight="normal"
     text-decoration=""
     line-height="14px"
     x="104.17383"
     y="34"
     id="text6986"
     style="font-style:normal;font-weight:normal;font-size:12px;line-height:0%;font-family:Arial;fill:#000000;stroke:none">Tissue</text>
  <path
     d="m 152,29.5 6.66667,0 6.66666,0 6.66667,0"
     stroke-miterlimit="10"
     id="path6988"
     inkscape:connector-curvature="0"
     style="fill:none;stroke:#333333;stroke-width:2;stroke-miterlimit:10;marker-end:url(#marker4524)" />
  <path
     d="m 11,11 m 0,0 60,0 q 0,0 0,0 l 0,37 q 0,0 0,0 l -60,0 q 0,0 0,0 l 0,-37 q 0,0 0,0 z"
     stroke-miterlimit="10"
     id="path6990"
     inkscape:connector-curvature="0"
     style="fill:#9fc5e8;fill-opacity:1;stroke:#333333;stroke-width:2;stroke-miterlimit:10" />
  <text
     style="font-style:normal;font-weight:normal;font-size:12px;line-height:0%;font-family:Arial;fill:#000000;stroke:none"
     id="text6992"
     y="34"
     x="21.110352"
     line-height="14px"
     text-decoration=""
     font-weight="normal"
     font-style="normal"
     font-size="12px">Identity</text>
  <path
     style="fill:none;stroke:#333333;stroke-width:2;stroke-miterlimit:10;marker-end:url(#marker4564)"
     inkscape:connector-curvature="0"
     id="path6994"
     stroke-miterlimit="10"
     d="m 71,29.5 6.666667,0 6.666666,0 L 91,29.5" />
</svg>
